Coordinates
version=1
nRows=30
nColumns=38
inDegrees=no

Units are S.I. units (second, meters, Newtons, ...)
If the header above contains a line with 'inDegrees', this indicates whether rotational values are in degrees (yes) or radians (no).

endheader
time	pelvis_tilt	pelvis_list	pelvis_rotation	pelvis_tx	pelvis_ty	pelvis_tz	hip_flexion_r	hip_adduction_r	hip_rotation_r	knee_angle_r	ankle_angle_r	subtalar_angle_r	mtp_angle_r	hip_flexion_l	hip_adduction_l	hip_rotation_l	knee_angle_l	ankle_angle_l	subtalar_angle_l	mtp_angle_l	lumbar_extension	lumbar_bending	lumbar_rotation	arm_flex_r	arm_add_r	arm_rot_r	elbow_flex_r	pro_sup_r	wrist_flex_r	wrist_dev_r	arm_flex_l	arm_add_l	arm_rot_l	elbow_flex_l	pro_sup_l	wrist_flex_l	wrist_dev_l
0.46	0.0475288	-0.0669276	-0.043537	0.94796	1.05914	-0.303941	0.279871	0.0924816	-0.388989	-0.164615	-0.187426	0.0200204	0.000164369	-0.351577	-0.0987054	-0.406111	-0.779307	-0.282313	0.0206575	0.00105776	-0.262278	0.11905	-0.0703872	-0.683512	-0.193996	-0.142904	2.00374	1.56237	0.0017308	0.0200989	-0.302963	-0.264086	0.172937	2.36986	1.74732	0.0151051	0.00682351
0.47	0.05322	-0.0697252	-0.0443429	0.947731	1.0533	-0.302935	0.288155	0.096415	-0.358717	-0.249118	-0.129096	0.0200204	0.000164369	-0.325346	-0.12327	-0.399688	-0.882699	-0.247032	0.0206575	0.00105776	-0.269878	0.123041	-0.0665523	-0.662786	-0.208065	-0.128358	1.99001	1.57212	0.0017308	0.0200989	-0.321367	-0.268923	0.159745	2.34196	1.72838	0.0151051	0.00682351
0.48	0.0582152	-0.0729444	-0.0442624	0.94695	1.04658	-0.302215	0.295878	0.100887	-0.333836	-0.332018	-0.0684633	0.0200204	0.000164369	-0.2933	-0.145134	-0.387678	-0.983152	-0.212205	0.0206575	0.00105776	-0.278353	0.127248	-0.0610816	-0.638347	-0.221828	-0.113842	1.9749	1.5788	0.0017308	0.0200989	-0.33743	-0.274116	0.145995	2.31387	1.71303	0.0151051	0.00682351
0.49	0.0625938	-0.0765997	-0.0433166	0.945615	1.03922	-0.301764	0.30283	0.105899	-0.314276	-0.412998	-0.00585734	0.0200204	0.000164369	-0.255567	-0.1643	-0.370228	-1.08054	-0.177874	0.0206575	0.00105776	-0.287794	0.13173	-0.0537789	-0.610376	-0.235192	-0.0995637	1.95858	1.58228	0.0017308	0.0200989	-0.351022	-0.279664	0.131883	2.28561	1.70133	0.0151051	0.00682351
0.5	0.0665232	-0.0806261	-0.0415438	0.943734	1.03162	-0.301571	0.308428	0.111343	-0.299761	-0.491104	0.0578408	0.0200204	0.000164369	-0.212497	-0.180677	-0.347724	-1.17441	-0.144212	0.0206575	0.00105776	-0.29831	0.136469	-0.0443967	-0.579218	-0.248016	-0.0858508	1.94146	1.58213	0.0017308	0.0200989	-0.362009	-0.285537	0.117744	2.25731	1.69334	0.0151051	0.00682351
0.51	0.070241	-0.0848505	-0.0390052	0.941354	1.02425	-0.301608	0.311637	0.116964	-0.289715	-0.564672	0.121291	0.0200204	0.000164369	-0.164736	-0.194063	-0.320888	-1.26388	-0.111536	0.0206575	0.00105776	-0.309988	0.141319	-0.0326551	-0.545479	-0.260106	-0.0731667	1.92431	1.57761	0.0017308	0.0200989	-0.370305	-0.291686	0.104117	2.22929	1.68896	0.0151051	0.00682351
0.52	0.0740064	-0.089008	-0.0357975	0.938534	1.01748	-0.301843	0.311059	0.122405	-0.283276	-0.631525	0.182986	0.0200204	0.000164369	-0.113272	-0.204215	-0.290825	-1.34764	-0.080252	0.0206575	0.00105776	-0.322872	0.14605	-0.0181627	-0.510188	-0.271183	-0.0621967	1.90838	1.56771	0.0017308	0.0200989	-0.375851	-0.298069	0.09183	2.20202	1.68787	0.0151051	0.00682351
0.53	0.0779705	-0.0927022	-0.0320361	0.93536	1.01156	-0.302243	0.305247	0.127176	-0.27943	-0.689329	0.241523	0.0200204	0.000164369	-0.0592592	-0.210868	-0.258918	-1.4241	-0.0508382	0.0206575	0.00105776	-0.336751	0.150259	-0.000750497	-0.474585	-0.281005	-0.0535082	1.89522	1.55136	0.0017308	0.0200989	-0.378882	-0.304638	0.0816843	2.17625	1.68949	0.0151051	0.00682351
0.54	0.08205	-0.0954317	-0.027853	0.931976	1.00664	-0.302775	0.293067	0.130718	-0.277174	-0.735983	0.295703	0.0200204	0.000164369	-0.00381032	-0.21381	-0.226689	-1.49155	-0.0237945	0.0206575	0.00105776	-0.351016	0.153382	0.0193344	-0.439923	-0.289446	-0.0473043	1.88648	1.52761	0.0017308	0.0200989	-0.380064	-0.311312	0.0741844	2.15296	1.69297	0.0151051	0.00682351
0.55	0.0859159	-0.0966735	-0.0234179	0.928577	1.00287	-0.303395	0.273944	0.132508	-0.275632	-0.76989	0.344436	0.0200204	0.000164369	0.0521471	-0.212984	-0.195652	-1.54841	0.00039877	0.0206575	0.00105776	-0.364668	0.154793	0.0414005	-0.407295	-0.296524	-0.0432993	1.88367	1.49606	0.0017308	0.0200989	-0.380503	-0.317973	0.0693805	2.13325	1.69733	0.0151051	0.00682351
0.56	0.08905	-0.0960088	-0.0189493	0.925377	1.00034	-0.304037	0.247903	0.132189	-0.2741	-0.790091	0.386555	0.0200204	0.000164369	0.10789	-0.208555	-0.167194	-1.59339	0.0213345	0.0206575	0.00105776	-0.376474	0.153934	0.0644573	-0.377542	-0.302387	-0.0407631	1.88789	1.45709	0.0017308	0.0200989	-0.381596	-0.324448	0.0668752	2.11823	1.70144	0.0151051	0.00682351
0.57	0.0908869	-0.0932297	-0.0146983	0.922574	0.999083	-0.304647	0.215449	0.129672	-0.272086	-0.796277	0.420676	0.0200204	0.000164369	0.162812	-0.20095	-0.142457	-1.6256	0.0387543	0.0206575	0.00105776	-0.38527	0.150491	0.0875608	-0.351342	-0.307227	-0.038809	1.89984	1.41196	0.0017308	0.0200989	-0.384711	-0.330528	0.0660686	2.10875	1.70416	0.0151051	0.00682351
0.58	0.0909835	-0.0883623	-0.0108892	0.920333	0.999082	-0.305191	0.177384	0.12511	-0.269326	-0.788704	0.445113	0.0200204	0.000164369	0.216321	-0.19076	-0.122252	-1.64456	0.052604	0.0206575	0.00105776	-0.390152	0.144426	0.109895	-0.329152	-0.311259	-0.0364784	1.91963	1.36262	0.0017308	0.0200989	-0.391028	-0.335936	0.0662454	2.1053	1.7045	0.0151051	0.00682351
0.59	0.0891018	-0.0816094	-0.00763898	0.918773	1.00028	-0.305655	0.134629	0.118793	-0.265829	-0.768099	0.457915	0.0200204	0.000164369	0.267755	-0.178613	-0.107024	-1.65009	0.0630634	0.0206575	0.00105776	-0.390597	0.135938	0.13071	-0.311096	-0.314707	-0.0327554	1.94676	1.31161	0.0017308	0.0200989	-0.401474	-0.340289	0.0665954	2.10786	1.70176	0.0151051	0.00682351
0.6	0.0852281	-0.0732399	-0.0048974	0.917968	1.0026	-0.306053	0.0881252	0.11104	-0.261912	-0.735571	0.457011	0.0200204	0.000164369	0.316357	-0.165035	-0.0968545	-1.6423	0.0705294	0.0206575	0.00105776	-0.386478	0.125376	0.149233	-0.296909	-0.317782	-0.0265909	1.98008	1.26165	0.0017308	0.0200989	-0.416695	-0.343099	0.0662307	2.11591	1.69561	0.0151051	0.00682351
0.61	0.0795419	-0.0635032	-0.00244042	0.917946	1.00594	-0.306422	0.0388063	0.102101	-0.25821	-0.692553	0.440486	0.0200204	0.000164369	0.361311	-0.150379	-0.0915247	-1.62141	0.0755476	0.0206575	0.00105776	-0.378017	0.113144	0.164656	-0.285965	-0.320642	-0.0170001	2.018	1.21535	0.0017308	0.0200989	-0.437037	-0.343805	0.0642455	2.12848	1.68615	0.0151051	0.00682351
0.62	0.0723548	-0.0525912	7.73841e-05	0.918694	1.01018	-0.306806	-0.0123707	0.0921165	-0.255629	-0.640798	0.406951	0.0200204	0.000164369	0.401802	-0.134791	-0.0906032	-1.58772	0.0787062	0.0206575	0.00105776	-0.365708	0.0996227	0.17622	-0.277413	-0.32336	-0.00322092	2.05862	1.17489	0.0017308	0.0200989	-0.462497	-0.341853	0.0598302	2.1443	1.67386	0.0151051	0.00682351
0.63	0.0640505	-0.0406534	0.0030274	0.920162	1.01518	-0.307249	-0.0643854	0.0811415	-0.255224	-0.582409	0.355947	0.0200204	0.000164369	0.437079	-0.118263	-0.093529	-1.54158	0.0805292	0.0206575	0.00105776	-0.350256	0.0851427	0.183398	-0.27038	-0.325904	0.015091	2.1001	1.14192	0.0017308	0.0200989	-0.492677	-0.3368	0.0524231	2.162	1.65945	0.0151051	0.00682351
0.64	0.0550462	-0.0278659	0.00669955	0.92226	1.0208	-0.307795	-0.116129	0.0692283	-0.258009	-0.519889	0.288298	0.0200204	0.000164369	0.466501	-0.100737	-0.0996705	-1.48335	0.0814005	0.0206575	0.00105776	-0.332527	0.0700184	0.186109	-0.264196	-0.32814	0.0377041	2.14087	1.1175	0.0017308	0.0200989	-0.526749	-0.328414	0.0418634	2.1803	1.64372	0.0151051	0.00682351
0.65	0.0457736	-0.0145274	0.0112148	0.924865	1.02684	-0.308488	-0.166408	0.0565333	-0.264739	-0.456177	0.206325	0.0200204	0.000164369	0.489574	-0.0822411	-0.108357	-1.4135	0.0815283	0.0206575	0.00105776	-0.313509	0.0546218	0.18488	-0.258577	-0.329862	0.0637386	2.1798	1.10212	0.0017308	0.0200989	-0.563464	-0.316756	0.0284871	2.1981	1.62741	0.0151051	0.00682351
0.66	0.0366817	-0.00112411	0.0164787	0.92782	1.03311	-0.309341	-0.213974	0.043388	-0.275721	-0.394623	0.113869	0.0200204	0.000164369	0.505981	-0.0630074	-0.118898	-1.33266	0.0809345	0.0206575	0.00105776	-0.294254	0.0394581	0.180869	-0.253691	-0.330849	0.0917355	2.21633	1.09577	0.0017308	0.0200989	-0.60124	-0.302199	0.0131064	2.21465	1.61125	0.0151051	0.00682351
0.67	0.0282149	0.011702	0.0221804	0.930943	1.03942	-0.310361	-0.257592	0.0302874	-0.290751	-0.338865	0.0160904	0.0200204	0.000164369	0.515614	-0.0435097	-0.130613	-1.24173	0.0794424	0.0206575	0.00105776	-0.275784	0.0251743	0.175665	-0.25003	-0.330917	0.119929	2.25026	1.09797	0.0017308	0.0200989	-0.638366	-0.285361	-0.00318306	2.22952	1.59589	0.0151051	0.00682351
0.68	0.0207088	0.0232351	0.0278803	0.934064	1.04555	-0.311514	-0.296162	0.017738	-0.309199	-0.292561	-0.0809939	0.0200204	0.000164369	0.518569	-0.0243671	-0.142895	-1.14195	0.0766457	0.0206575	0.00105776	-0.258973	0.0124276	0.170764	-0.248013	-0.33	0.146799	2.28146	1.10772	0.0017308	0.0200989	-0.67338	-0.26691	-0.0194299	2.24261	1.58199	0.0151051	0.00682351
0.69	0.0144368	0.0328051	0.0330982	0.937038	1.05133	-0.312732	-0.328842	0.00610315	-0.330204	-0.259054	-0.171152	0.0200204	0.000164369	0.515157	-0.00623708	-0.155281	-1.03494	0.0719179	0.0206575	0.00105776	-0.244471	0.00176377	0.167295	-0.24783	-0.328161	0.171292	2.3097	1.1236	0.0017308	0.0200989	-0.705219	-0.247466	-0.0350076	2.25403	1.57021	0.0151051	0.00682351
0.7	0.00965211	0.0399342	0.0374037	0.939784	1.05656	-0.313963	-0.355186	-0.00451897	-0.352891	-0.240995	-0.2487	0.0200204	0.000164369	0.505874	0.0103029	-0.167517	-0.922807	0.0644849	0.0206575	0.00105776	-0.232731	-0.00649434	0.165892	-0.249427	-0.325554	0.192816	2.33457	1.14396	0.0017308	0.0200989	-0.733235	-0.22757	-0.0496326	2.26408	1.56103	0.0151051	0.00682351
0.71	0.00658998	0.044461	0.040505	0.942253	1.06112	-0.315125	-0.375216	-0.0143742	-0.376528	-0.240064	-0.309192	0.0200204	0.000164369	0.491374	0.0248685	-0.179592	-0.808126	0.0535847	0.0206575	0.00105776	-0.224046	-0.0123291	0.166677	-0.252576	-0.322376	0.21113	2.3556	1.16715	0.0017308	0.0200989	-0.757123	-0.207694	-0.0632945	2.27309	1.55475	0.0151051	0.00682351
0.72	0.00544792	0.0465992	0.0423122	0.944424	1.0649	-0.316149	-0.389383	-0.0240413	-0.400553	-0.256834	-0.349912	0.0200204	0.000164369	0.47246	0.0373404	-0.191701	-0.69394	0.0387076	0.0206575	0.00105776	-0.218568	-0.0160668	0.169309	-0.256975	-0.318802	0.226193	2.37228	1.1916	0.0017308	0.0200989	-0.776827	-0.188259	-0.0761426	2.28139	1.55131	0.0151051	0.00682351
0.73	0.00635154	0.0469096	0.0429656	0.946309	1.06784	-0.317	-0.398451	-0.0343256	-0.424508	-0.290772	-0.370102	0.0200204	0.000164369	0.450087	0.0478835	-0.204095	-0.583658	0.0198608	0.0206575	0.00105776	-0.21631	-0.0183291	0.173087	-0.262345	-0.314955	0.238039	2.38419	1.216	0.0017308	0.0200989	-0.792436	-0.169663	-0.0883628	2.28921	1.55037	0.0151051	0.00682351
0.74	0.00932489	0.0461837	0.0428212	0.94796	1.06989	-0.317688	-0.403316	-0.0460836	-0.44793	-0.340381	-0.370934	0.0200204	0.000164369	0.425356	0.0569054	-0.216839	-0.480911	-0.00223899	0.0206575	0.00105776	-0.217129	-0.0199109	0.17709	-0.268502	-0.310896	0.246684	2.39104	1.23932	0.0017308	0.0200989	-0.804097	-0.152297	-0.100071	2.29666	1.55125	0.0151051	0.00682351
0.75	0.0142581	0.0452643	0.0423956	0.949439	1.07103	-0.318252	-0.40483	-0.0600262	-0.470284	-0.403455	-0.355238	0.0200204	0.000164369	0.399494	0.0649602	-0.229558	-0.389337	-0.0261291	0.0206575	0.00105776	-0.220721	-0.0216101	0.180337	-0.275396	-0.306637	0.252102	2.39276	1.2608	0.0017308	0.0200989	-0.811942	-0.136554	-0.111242	2.30368	1.5531	0.0151051	0.00682351
